<?xml version="1.0" encoding="UTF-8" standalone="no"?>
<svg width="1920px" height="1137px" viewBox="0 0 1920 1137" version="1.1" xmlns="http://www.w3.org/2000/svg" xmlns:xlink="http://www.w3.org/1999/xlink">
    <!-- Generator: Sketch 49 (51002) - http://www.bohemiancoding.com/sketch -->
    <title>Group 20</title>
    <desc>Created with Sketch.</desc>
    <defs>
        <rect id="path-1" x="-9.09494702e-13" y="0" width="1920" height="1137"></rect>
        <rect id="path-3" x="0" y="0" width="957" height="689"></rect>
    </defs>
    <g id="Telas-finais" stroke="none" stroke-width="1" fill="none" fill-rule="evenodd">
        <g id="Group-20">
            <g id="Fill-1-Copy-4-+-Page-1-Copy-Mask">
                <mask id="mask-2" fill="white">
                    <use xlink:href="#path-1"></use>
                </mask>
                <use id="Mask" fill="#FFFFFF" xlink:href="#path-1"></use>
                <g id="Fill-1-Copy-4" mask="url(#mask-2)">
                    <g transform="translate(1441.500000, 807.500000) scale(-1, 1) rotate(-180.000000) translate(-1441.500000, -807.500000) translate(963.000000, 463.000000)">
                        <mask id="mask-4" fill="white">
                            <use xlink:href="#path-3"></use>
                        </mask>
                        <g id="Mask" stroke="none" fill="none"></g>
                        <path d="M772.809542,578.019834 L698.796475,552.775098 L781.296484,495.310685 L852.444781,581.557422 L772.809542,578.019834 Z M679.282365,614.664551 L696.927298,554.718693 L769.032145,579.315564 L679.282365,614.664551 Z M676.637211,615.011709 L600.469466,579.552707 L694.335828,554.884938 L676.637211,615.011709 Z M598.363592,577.579775 L609.771428,501.520411 L653.71417,487.176922 L694.206499,552.391268 L598.363592,577.579775 Z M595.715998,578.789938 L559.647713,635.181095 L516.075878,593.280113 L606.92862,504.021414 L595.715998,578.789938 Z M514.121295,591.774132 L450.605878,556.271124 L603.971123,503.500678 L514.121295,591.774132 Z M395.548121,629.905273 L312.108644,605.992938 L447.514172,557.34438 L511.268726,592.981851 L395.548121,629.905273 Z M308.304405,604.760772 L185.795222,520.452741 L442.553288,556.527826 L308.304405,604.760772 Z M121.52823,586.803907 L181.024673,520.137365 L303.541175,604.450286 L121.52823,586.803907 Z M82.0363749,472.777203 L178.835832,518.924757 L119.505322,585.403051 L82.0363749,472.777203 Z M70.8774367,401.653837 L108.993031,343.490219 L178.52837,516.069261 L81.0822649,469.61611 L70.8774367,401.653837 Z M109.25413,200.874328 L169.929179,152.059525 L270.73053,186.129896 L109.25413,338.035928 L109.25413,200.874328 Z M352.657097,389.649997 L233.376271,382.479475 L212.139394,319.550992 L273.86372,188.701798 L352.657097,389.649997 Z M447.577616,447.402893 L389.501358,497.870363 L304.546529,484.776154 L354.955745,392.676627 L447.577616,447.402893 Z M302.704194,486.964226 L389.298823,500.312692 L444.132084,554.281078 L186.932346,518.142429 L302.704194,486.964226 Z M233.300625,384.924249 L352.496045,392.089882 L301.818409,484.673473 L182.830405,516.717126 L233.300625,384.924249 Z M113.253584,338.77425 L270.110724,190.933877 L209.982276,318.401948 L113.253584,338.77425 Z M210.016438,320.893173 L231.187431,383.623629 L180.805057,515.184253 L110.930533,341.761764 L210.016438,320.893173 Z M500.392849,487.763667 L447.514172,554.183287 L391.673117,499.219878 L449.705452,448.791525 L500.392849,487.763667 Z M574.313188,418.141393 L502.04485,485.949645 L452.440893,447.811171 C468.49483,444.021771 552.600476,424.121311 574.313188,418.141393 Z M603.268351,501.161029 L451.191521,553.486527 L502.652454,488.849147 L603.268351,501.161029 Z M578.454172,417.605988 L606.879816,499.139201 L504.863256,486.656185 L578.454172,417.605988 Z M675.54157,452.343782 L653.472592,484.685697 L609.434683,499.058523 L580.760141,416.806547 C589.305648,418.72325 629.112286,433.966415 675.54157,452.343782 Z M777.948559,494.667709 L696.475865,551.415803 L656.530136,487.086465 L777.948559,494.667709 Z M774.1492,491.978458 L656.464252,484.631912 L677.869501,453.265461 C709.694314,465.873161 744.393659,479.857268 774.1492,491.978458 Z M855.965959,581.985257 L782.46533,492.885469 C782.431167,492.848797 782.379924,492.834129 782.345761,492.799902 C782.287197,492.743672 782.228633,492.707 782.162748,492.662994 C782.099303,492.623878 782.05294,492.560314 781.982175,492.533421 C736.982835,474.16339 593.034241,415.728401 579.366799,414.290874 C579.335077,414.281095 579.313115,414.254203 579.278952,414.244424 C579.039815,414.183304 578.795797,414.224865 578.56398,414.312877 C578.527377,414.322656 578.471253,414.322656 578.441971,414.337325 C574.559646,416.28092 484.780584,437.675138 449.856743,445.911581 L355.473063,390.146286 L275.10089,185.176434 C275.088689,185.144652 275.061847,185.125094 275.047206,185.098201 C275.000843,184.997965 274.939838,184.907509 274.864193,184.821942 C274.82515,184.780381 274.790988,184.738819 274.747064,184.702148 C274.722663,184.680145 274.708021,184.653252 274.68362,184.633694 C274.603094,184.57502 274.510367,184.543238 274.422521,184.506566 C274.398119,184.496787 274.378597,184.472339 274.354196,184.465005 L274.307832,184.450336 C274.302952,184.447891 274.300512,184.445447 274.298071,184.445447 L170.976016,149.62453 L6.45427322,-34 L4.63878011,-32.366891 L168.523636,150.548655 L109.124801,198.823162 L6.13704997,141.769472 L4.95600337,143.908649 L106.189266,199.991764 L0.29282147,233.964344 L0.42703131,236.294214 L106.813952,201.967142 L106.813952,337.842791 L14.3531324,241.411126 L12.9036661,243.110244 L107.546005,341.011218 L68.8935712,400.111185 L0.702771527,395.876837 L0.571001866,398.316721 L68.5324248,402.533956 L78.6323253,469.772575 L0.0805259041,512.556121 L1.24693142,514.705077 L79.2740923,472.210015 L117.558059,587.278193 L0,663.775172 L1.32989751,665.823892 L118.729345,589.429594 L179.860707,669.816208 L181.80309,668.33712 L121.679521,589.275573 L306.984268,607.242218 L313.01151,693 L315.444368,692.826421 L309.46593,607.777623 L393.605739,631.890429 L364.872632,673.886757 L366.88578,675.268054 L396.336299,632.220474 L509.563041,596.091603 L432.963385,668.185544 L434.632467,669.967784 L514.314069,594.974342 L558.256811,637.229815 L535.302048,668.351789 L537.266392,669.80154 L560.855602,637.816561 C560.872683,637.794558 560.877563,637.767666 560.892204,637.745663 L560.901965,637.750552 L596.8336,581.574535 L649.919692,672.749937 L652.025566,671.517771 L599.896024,581.982813 L676.571326,617.674068 L709.728477,669.733086 L711.787988,668.420242 L679.233561,617.309797 L771.072135,581.136921 L759.166502,665.03423 L761.582279,665.378943 L773.627002,580.50128 L854.736109,584.102432 L962.6335,657.254959 L964,655.230686 L855.965959,581.985257 Z" id="Fill-1-Copy" stroke="none" fill="#E6E7E8" fill-rule="evenodd" mask="url(#mask-4)" transform="translate(482.000000, 329.500000) rotate(-180.000000) translate(-482.000000, -329.500000) "></path>
                    </g>
                </g>
                <g id="Page-1-Copy" mask="url(#mask-2)">
                    <g transform="translate(-237.000000, -395.000000)">
                        <path d="M780.613655,0 L658.092744,78.0858568 L593.990673,80.3507266 L368.69491,169.321369 L285.815089,256.779615 L0,374.642248 L21.667781,440.442676 L136.472012,723.573753 L164.947752,790 L472.378483,658.458746 L860.015011,776.872695 L959.780655,753.702481 L1100.46854,660.172298 L1124.97421,536.826296 L1239.86782,385.988947 L1241,385.683488 L1012.13639,150.062525 L876.096393,54.5431312 L859.240364,71.894716 L859.165878,71.9170667 L876.051702,54.4984298 L780.613655,0 Z M688.907322,113.385045 L688.914771,113.385045 L689.346786,113.88421 L863.999976,313.699369 L986.945453,454.598112 L986.81138,454.635363 L688.907322,113.385045 Z" id="Fill-1" fill="#D14317"></path>
                        <polygon id="Fill-2" fill="#D75119" points="986.671506 454.497782 889 585 1124.66133 536.761679 1240 385"></polygon>
                        <polygon id="Fill-3" fill="#B5311C" points="889 585.224707 959.779886 754 1100.48294 660.42066 1125 537"></polygon>
                        <polygon id="Fill-4" fill="#E3711D" points="136 723.638955 164.490487 790 472 658.587864 454.230698 613"></polygon>
                        <polygon id="Fill-5" fill="#E3620E" points="136.811114 723 22 440 393.519587 446.016999 455 612.303608"></polygon>
                        <polygon id="Fill-6" fill="#D55219" points="0 375.064339 21.6674561 440.984838 393 447 285.712586 257"></polygon>
                        <polygon id="Fill-7" fill="#E98224" points="393 446.247249 602 397 472.339899 658 454.552189 612.413925"></polygon>
                        <polygon id="Fill-8" fill="#E3711D" points="601.606597 397 889 585.009339 859.977367 777 472 658.50722"></polygon>
                        <polygon id="Fill-9" fill="#E3620E" points="658.275669 78 987 454.591529 889.193841 585 872.918885 574.344983 602.054445 397.099142 393.325332 446.410264 286 256.706249 368.879379 169.245694 594.17394 80.2651226"></polygon>
                        <polygon id="Fill-10" fill="#DC6D1D" points="960 753.804318 860 777 889.065253 585"></polygon>
                        <polygon id="Fill-11" fill="#D8621A" points="864 313.482441 987.613395 455 1241 385.398638 1012.14093 150"></polygon>
                    </g>
                </g>
            </g>
        </g>
    </g>
</svg>