<?xml version="1.0" encoding="UTF-8" standalone="no"?>
<svg width="360px" height="259px" viewBox="0 0 360 259" version="1.1" xmlns="http://www.w3.org/2000/svg" xmlns:xlink="http://www.w3.org/1999/xlink">
    <!-- Generator: Sketch 49 (51002) - http://www.bohemiancoding.com/sketch -->
    <title>Fill 1 Copy</title>
    <desc>Created with Sketch.</desc>
    <defs>
        <rect id="path-1" x="0" y="0" width="360" height="259"></rect>
    </defs>
    <g id="Telas-finais" stroke="none" stroke-width="1" fill="none" fill-rule="evenodd">
        <g id="Fill-1-Copy">
            <mask id="mask-2" fill="white">
                <use xlink:href="#path-1"></use>
            </mask>
            <g id="Mask"></g>
            <path d="M290.748686,216.823129 L262.903272,207.343331 L293.941668,185.764535 L320.70929,218.151549 L290.748686,216.823129 Z M255.561615,230.5838 L262.200044,208.073182 L289.327543,217.309696 L255.561615,230.5838 Z M254.566448,230.714163 L225.910394,217.398747 L261.225074,208.135609 L254.566448,230.714163 Z M225.118116,216.65788 L229.410006,188.096385 L245.942274,182.710178 L261.176417,207.199197 L225.118116,216.65788 Z M224.12203,217.112315 L210.552314,238.288087 L194.15959,222.553605 L228.340476,189.035552 L224.12203,217.112315 Z M193.424231,221.988086 L169.528273,208.656144 L227.227798,188.840007 L193.424231,221.988086 Z M148.814281,236.306932 L117.422435,227.327472 L168.365102,209.059169 L192.351029,222.441603 L148.814281,236.306932 Z M115.991193,226.864774 L69.9004267,195.205775 L166.498704,208.75254 L115.991193,226.864774 Z M45.7217094,220.121687 L68.1056364,195.087346 L114.199157,226.748182 L45.7217094,220.121687 Z M30.863967,177.302856 L67.2821444,194.631993 L44.9606449,219.595644 L30.863967,177.302856 Z M26.6657183,150.594907 L41.0056798,128.753549 L67.1664699,193.559709 L30.5050089,176.115816 L26.6657183,150.594907 Z M41.1039113,75.1990255 L63.9312571,56.8682949 L101.855039,69.662258 L41.1039113,126.705376 L41.1039113,75.1990255 Z M132.677693,146.087275 L87.8015092,143.394631 L79.8117087,119.76399 L103.033817,70.628048 L132.677693,146.087275 Z M168.388971,167.774402 L146.53935,186.725735 L114.577394,181.808652 L133.542498,147.223823 L168.388971,167.774402 Z M113.884265,182.630308 L146.463152,187.642868 L167.092683,207.908851 L70.3282387,194.338216 L113.884265,182.630308 Z M87.7730496,144.312682 L132.617102,147.003491 L113.551012,181.770094 L68.7849944,193.802992 L87.7730496,144.312682 Z M42.6085974,126.982628 L101.621854,71.4662288 L79.0001513,119.332506 L42.6085974,126.982628 Z M79.013004,120.268 L86.9780172,143.824279 L68.0230118,193.227374 L41.7346126,128.104486 L79.013004,120.268 Z M188.259274,182.930511 L168.365102,207.872129 L147.356416,187.232499 L169.189512,168.295855 L188.259274,182.930511 Z M216.069802,156.786245 L188.880795,182.249317 L170.218648,167.927716 C176.258507,166.504737 207.900982,159.031799 216.069802,156.786245 Z M226.963399,187.961432 L169.748605,207.610484 L189.109389,183.338125 L226.963399,187.961432 Z M217.627735,156.585192 L228.322115,187.202203 L189.941144,182.514633 L217.627735,156.585192 Z M254.154243,169.629783 L245.851387,181.774684 L229.283315,187.171908 L218.495294,156.284989 C221.710309,157.004742 236.68648,162.728792 254.154243,169.629783 Z M292.682102,185.523087 L262.030205,206.832894 L247.001705,182.67621 L292.682102,185.523087 Z M291.252696,184.513231 L246.976918,181.754487 L255.030064,169.975889 C267.003289,174.710279 280.057978,179.961533 291.252696,184.513231 Z M322.034039,218.312208 L294.381415,184.853828 C294.368562,184.840057 294.349283,184.834549 294.33643,184.821696 C294.314397,184.800581 294.292364,184.78681 294.267577,184.770285 C294.243707,184.755597 294.226264,184.731727 294.199641,184.721629 C277.269857,177.823391 223.113092,155.880129 217.971086,155.340315 C217.959152,155.336642 217.950889,155.326544 217.938037,155.322872 C217.848068,155.29992 217.756262,155.315527 217.669048,155.348577 C217.655277,155.352249 217.634162,155.352249 217.623145,155.357758 C216.162525,156.087608 182.385582,164.121475 169.246431,167.21439 L133.737125,146.27364 L103.499269,69.304218 C103.494678,69.2922833 103.48458,69.2849389 103.479071,69.2748403 C103.461628,69.2372002 103.438677,69.2032323 103.410218,69.1711006 C103.395529,69.1554937 103.382676,69.1398868 103.366151,69.126116 C103.356971,69.1178536 103.351462,69.107755 103.342282,69.1004106 C103.311986,69.0783774 103.2771,69.0664427 103.24405,69.0526719 C103.23487,69.0489997 103.227525,69.0398192 103.218345,69.0370651 L103.200902,69.0315568 C103.199066,69.0306387 103.198148,69.0297207 103.19723,69.0297207 L64.3251011,55.9539158 L2.42824571,-13 L1.74521554,-12.3867417 L63.4024596,56.3009392 L41.0552546,74.4287804 L2.30889904,53.004217 L1.86456221,53.8075119 L39.9508389,74.8676089 L0.110166157,87.6248499 L0.160658979,88.4997528 L40.18586,75.6093944 L40.18586,126.63285 L5.39997781,90.4212342 L4.85465533,91.0592799 L40.4612754,127.822645 L25.9193426,150.015617 L0.264398777,148.425552 L0.214824007,149.341767 L25.783471,150.925406 L29.5832854,176.174571 L0.0302956932,192.240469 L0.469124219,193.047436 L29.8247329,177.089868 L44.2280399,220.299789 L0,249.025615 L0.500337964,249.794942 L44.6687045,221.107674 L67.667726,251.294119 L68.3984948,250.738698 L45.7786286,221.049837 L115.494527,227.796596 L117.762114,260 L118.677411,259.934818 L116.428185,227.997649 L148.083512,237.052389 L137.273458,252.822675 L138.030851,253.341374 L149.110812,237.176326 L191.709311,223.609364 L162.890762,250.681779 L163.518709,251.351039 L193.496757,223.189815 L210.029025,239.057414 L201.392916,250.744207 L202.131947,251.288611 L211.006749,239.277746 C211.013176,239.269483 211.015012,239.259385 211.02052,239.251122 L211.024192,239.252958 L224.542498,218.157975 L244.514704,252.395781 L245.306982,251.933083 L225.694652,218.31129 L254.54166,231.713921 L267.016142,251.262906 L267.790977,250.769912 L255.543254,231.577131 L290.095033,217.993644 L285.615861,249.498411 L286.524732,249.627856 L291.056233,217.754951 L321.571341,219.10724 L362.164815,246.577172 L362.678924,245.817025 L322.034039,218.312208 Z" fill="#E6E7E8" mask="url(#mask-2)" transform="translate(181.339462, 123.500000) rotate(-180.000000) translate(-181.339462, -123.500000) "></path>
        </g>
    </g>
</svg>