<?xml version="1.0" encoding="UTF-8" standalone="no"?>
<svg width="35px" height="35px" viewBox="0 0 35 35" version="1.1" xmlns="http://www.w3.org/2000/svg" xmlns:xlink="http://www.w3.org/1999/xlink">
    <!-- Generator: Sketch 49 (51002) - http://www.bohemiancoding.com/sketch -->
    <title>facebook-3</title>
    <desc>Created with Sketch.</desc>
    <defs></defs>
    <g id="Page-1" stroke="none" stroke-width="1" fill="none" fill-rule="evenodd">
        <g id="facebook-3" fill-rule="nonzero">
            <circle id="Oval" fill="#FFFFFF" cx="17.5" cy="17.5" r="17.5"></circle>
            <path d="M20.9880889,9 L18.2710709,9 C16.6587017,9 14.8652923,9.71800337 14.8652923,12.1925861 C14.8731636,13.0548251 14.8652923,13.8805973 14.8652923,14.8099494 L13,14.8099494 L13,17.9526637 L14.9230153,17.9526637 L14.9230153,27 L18.4566505,27 L18.4566505,17.8929587 L20.7889739,17.8929587 L21,14.8011303 L18.3957624,14.8011303 C18.3957624,14.8011303 18.401593,13.4257546 18.3957624,13.0263396 C18.3957624,12.0484387 19.3568119,12.1044397 19.4146181,12.1044397 C19.8719454,12.1044397 20.7611536,12.1058507 20.9894216,12.1044397 L20.9894216,9 L20.9880889,9 Z" id="Shape" fill="#3C5A9A"></path>
        </g>
    </g>
</svg>