<?xml version="1.0" encoding="UTF-8" standalone="no"?>
<svg width="35px" height="35px" viewBox="0 0 35 35" version="1.1" xmlns="http://www.w3.org/2000/svg" xmlns:xlink="http://www.w3.org/1999/xlink">
    <!-- Generator: Sketch 49 (51002) - http://www.bohemiancoding.com/sketch -->
    <title>Group 17</title>
    <desc>Created with Sketch.</desc>
    <defs></defs>
    <g id="Page-1" stroke="none" stroke-width="1" fill="none" fill-rule="evenodd">
        <g id="Group-17" fill-rule="nonzero">
            <circle id="Oval-Copy-2" fill="#FFFFFF" cx="17.5" cy="17.5" r="17.5"></circle>
            <g id="world-wide-web" transform="translate(8.000000, 8.000000)" fill="#000000">
                <path d="M18.4712488,12.6253584 C18.8133392,11.6461248 19,10.5945336 19,9.5 C19,8.40546636 18.8133392,7.35387519 18.4712488,6.37464163 C18.4628962,6.34522649 18.4530003,6.31653765 18.4410163,6.28893826 C17.1214987,2.62611812 13.6118942,0 9.5,0 C5.38810577,0 1.87841054,2.62611812 0.558983744,6.28893826 C0.546999685,6.31662844 0.537012968,6.34522649 0.52875123,6.37464163 C0.186660805,7.35387519 0,8.40546636 0,9.5 C0,10.5945336 0.186660805,11.6461248 0.52875123,12.6253584 C0.537103757,12.6547735 0.546999685,12.6834623 0.558983744,12.7110617 C1.87850132,16.3739727 5.38810577,19 9.5,19 C13.6118942,19 17.1214987,16.3738819 18.4410163,12.7110617 C18.4530003,12.6834623 18.4628962,12.6548643 18.4712488,12.6253584 Z M9.5,17.6382789 C9.13820851,17.6382789 8.55489349,16.9835197 8.06736016,15.5207521 C7.83203681,14.8148796 7.64365103,14.0034213 7.50637907,13.1206948 L11.4936209,13.1206948 C11.356349,14.0034213 11.1679632,14.8147888 10.9327306,15.5207521 C10.4451065,16.9835197 9.86179149,17.6382789 9.5,17.6382789 Z M7.34114432,11.7588828 C7.27568593,11.0327647 7.24109558,10.2752341 7.24109558,9.5 C7.24109558,8.72476586 7.27568593,7.96723528 7.34114432,7.24111716 L11.6587649,7.24111716 C11.7242233,7.96723528 11.7588136,8.72476586 11.7588136,9.5 C11.7588136,10.2752341 11.7242233,11.0327647 11.6587649,11.7588828 L7.34114432,11.7588828 Z M1.36173415,9.50009079 C1.36173415,8.71659499 1.47331301,7.95870126 1.68094592,7.24120795 L5.9752339,7.24120795 C5.91159128,7.982306 5.87927064,8.74183391 5.87927064,9.50009079 C5.87927064,10.2583477 5.91150049,11.0178756 5.9752339,11.7589736 L1.68094592,11.7589736 C1.47331301,11.0413895 1.36173415,10.2835866 1.36173415,9.50009079 Z M9.5,1.36181193 C9.86179149,1.36181193 10.4451973,2.0165711 10.9327306,3.47933869 C11.1679632,4.1852112 11.3564398,4.99666953 11.4936209,5.87930524 L7.50628829,5.87930524 C7.64356024,4.99657875 7.83194602,4.1852112 8.06726937,3.47933869 C8.55489349,2.0165711 9.13820851,1.36181193 9.5,1.36181193 Z M13.0246753,7.24120795 L17.3189633,7.24120795 C17.5265962,7.95870126 17.6381751,8.71659499 17.6381751,9.50009079 C17.6381751,10.2835866 17.5265962,11.0414803 17.3189633,11.7589736 L13.0246753,11.7589736 C13.0883179,11.0178756 13.1206386,10.2583477 13.1206386,9.50009079 C13.1206386,8.74183391 13.0883179,7.982306 13.0246753,7.24120795 Z M16.7868529,5.87939602 L12.8684286,5.87939602 C12.6262053,4.20917909 12.2106672,2.71073203 11.6277153,1.64470566 C13.8878907,2.25743024 15.7604,3.82178899 16.7868529,5.87939602 Z M7.37219392,1.64461487 C6.78924206,2.71064125 6.37370388,4.2090883 6.13148061,5.87939602 L2.21305632,5.87939602 C3.23959996,3.82178899 5.11201846,2.25743024 7.37219392,1.64461487 Z M2.21305632,13.1206948 L6.13148061,13.1206948 C6.37370388,14.7909117 6.78924206,16.2893588 7.37219392,17.3554759 C5.11201846,16.7426606 3.23959996,15.1783926 2.21305632,13.1206948 Z M11.6277153,17.3554759 C12.2106672,16.2894495 12.6262053,14.7910025 12.8684286,13.1206948 L16.7868529,13.1206948 C15.7604,15.1783926 13.8878907,16.7426606 11.6277153,17.3554759 Z" id="Shape"></path>
            </g>
        </g>
    </g>
</svg>