<?xml version="1.0" encoding="UTF-8" standalone="no"?>
<!DOCTYPE svg PUBLIC "-//W3C//DTD SVG 1.1//EN" "http://www.w3.org/Graphics/SVG/1.1/DTD/svg11.dtd">
<svg width="100%" height="100%" viewBox="0 0 800 800" version="1.1" xmlns="http://www.w3.org/2000/svg" xmlns:xlink="http://www.w3.org/1999/xlink" xml:space="preserve" xmlns:serif="http://www.serif.com/" style="fill-rule:evenodd;clip-rule:evenodd;stroke-linejoin:round;stroke-miterlimit:1.41421;">
    <g transform="matrix(1,0,0,1,-4.72895,-87.0338)">
        <g transform="matrix(8.33333,0,0,8.33333,-1098.9,-4237.16)">
            <clipPath id="_clip1">
                <path d="M190.095,574.866C189.774,575.194 189.141,575.463 188.688,575.463L173.337,575.472C172.883,575.472 172.249,575.205 171.929,574.877L161.067,563.793C160.746,563.465 160.484,562.818 160.483,562.355L160.48,556.877C160.48,556.414 160.851,556.035 161.304,556.035L178.764,556.035C179.218,556.035 179.589,556.414 179.589,556.877L179.589,560.984C179.589,561.389 179.96,561.721 180.413,561.721L187.923,561.721C188.376,561.721 188.484,561.988 188.162,562.314L186.192,564.311C185.869,564.638 185.867,565.174 186.187,565.503L186.767,566.101C187.087,566.43 187.611,566.432 187.933,566.106L194.168,559.787C194.49,559.461 194.383,559.194 193.929,559.194L182.887,559.194C182.433,559.194 182.062,558.815 182.062,558.351L182.062,551.401C182.062,550.938 182.433,550.559 182.887,550.559L200.694,550.559C201.148,550.559 201.519,550.938 201.52,551.401L201.526,562.33C201.526,562.794 201.264,563.441 200.944,563.769L190.095,574.866ZM168.425,537.693C168.746,537.365 169.008,537.139 169.008,537.19L169.008,537.239C169.003,538.943 169.005,541.31 169.013,544.275C169.022,548.039 169.043,552.665 169.043,552.665C169.045,553.128 168.675,553.507 168.222,553.507L161.303,553.507C160.849,553.507 160.478,553.128 160.478,552.665L160.474,546.67C160.474,546.206 160.736,545.559 161.057,545.231L168.425,537.693ZM178.764,533.534C179.218,533.534 179.589,533.912 179.589,534.376L179.589,552.665C179.589,553.128 179.218,553.507 178.764,553.507L172.344,553.507C171.891,553.507 171.518,553.128 171.517,552.665L171.499,535.391C171.499,534.928 171.722,534.321 171.994,534.043C172.265,533.765 172.859,533.537 173.312,533.537L178.764,533.534ZM189.898,533.946C190.123,534.176 190.308,534.743 190.308,535.206L190.308,547.189C190.308,547.652 189.937,548.031 189.483,548.031L182.887,548.031C182.433,548.031 182.062,547.652 182.062,547.189L182.062,534.374C182.062,533.911 182.433,533.532 182.887,533.531L188.664,533.528C189.117,533.528 189.672,533.716 189.898,533.946ZM200.933,545.207C201.254,545.535 201.516,546.182 201.517,546.645L201.517,547.189C201.517,547.652 201.146,548.031 200.693,548.031L193.606,548.031C193.152,548.031 192.781,547.652 192.781,547.189L192.781,537.731C192.781,537.267 193.044,537.156 193.365,537.484L200.933,545.207ZM203.99,545.597C203.99,545.133 203.727,544.486 203.406,544.159L191.095,531.595C190.774,531.267 190.14,531 189.687,531L172.286,531.01C171.833,531.011 171.2,531.279 170.879,531.607L169.996,532.51C169.676,532.838 169.413,533.106 169.413,533.106C169.394,533.126 169.115,533.411 168.794,533.739L158.582,544.186C158.262,544.514 158,545.161 158,545.624L158.01,563.403C158.01,563.867 158.273,564.514 158.594,564.841L170.906,577.405C171.226,577.733 171.86,578 172.313,578L189.714,577.99C190.167,577.989 190.801,577.721 191.121,577.393L203.418,564.814C203.738,564.486 204,563.839 204,563.376L203.99,545.597Z"/>
            </clipPath>
            <g clip-path="url(#_clip1)">
                <rect x="153" y="526" width="56" height="57" style="fill:url(#_Linear2);"/>
            </g>
        </g>
        <g transform="matrix(8.33333,0,0,8.33333,-1098.9,-3562.33)">
            <clipPath id="_clip3">
                <path d="M145.711,521.827C144.927,521.827 144.192,521.703 143.506,521.454C142.82,521.205 142.215,520.874 141.69,520.459C141.165,520.044 140.752,519.557 140.451,518.997C140.15,518.437 140,517.846 140,517.224L143.191,517.224C143.191,517.348 143.251,517.494 143.37,517.66C143.489,517.825 143.656,517.985 143.874,518.137C144.09,518.289 144.353,518.416 144.661,518.52C144.969,518.624 145.319,518.676 145.711,518.676C146.341,518.676 146.837,518.603 147.201,518.458C147.565,518.313 147.838,518.154 148.02,517.981C148.202,517.808 148.342,517.577 148.44,517.286C148.44,517.121 148.43,516.955 148.409,516.789C148.388,516.623 148.321,516.471 148.209,516.332C148.013,516.098 147.677,515.915 147.201,515.783C146.725,515.652 146.137,515.586 145.438,515.586C144.906,515.586 144.426,515.538 144,515.441C143.572,515.344 143.198,515.223 142.877,515.078C142.554,514.933 142.274,514.771 142.037,514.591C141.798,514.411 141.603,514.232 141.449,514.052C141.141,513.72 140.903,513.371 140.735,513.004C140.567,512.638 140.448,512.293 140.378,511.968C140.308,511.643 140.269,511.36 140.262,511.117C140.255,510.876 140.252,510.7 140.252,510.589C140.252,510.492 140.266,510.337 140.294,510.122C140.322,509.908 140.381,509.669 140.472,509.407C140.563,509.144 140.689,508.865 140.85,508.567C141.011,508.27 141.231,507.983 141.512,507.706C142.533,506.698 143.954,506.193 145.774,506.193C147.565,506.193 148.965,506.711 149.973,507.748C150.322,508.108 150.595,508.481 150.791,508.868C150.987,509.255 151.127,509.614 151.211,509.946C151.295,510.278 151.344,510.561 151.358,510.796C151.372,511.031 151.379,511.176 151.379,511.232L148.188,511.128L148.188,511.169C148.188,511.003 148.16,510.814 148.104,510.599C148.048,510.385 147.936,510.184 147.768,509.998C147.6,509.811 147.355,509.656 147.033,509.531C146.711,509.407 146.291,509.345 145.774,509.345C145.27,509.345 144.867,509.393 144.566,509.49C144.265,509.587 144.034,509.704 143.874,509.842C143.712,509.981 143.604,510.126 143.548,510.278C143.492,510.43 143.464,510.554 143.464,510.651L143.464,510.796L143.443,510.817C143.443,510.955 143.457,511.093 143.485,511.232C143.513,511.343 143.548,511.463 143.59,511.594C143.632,511.726 143.709,511.847 143.821,511.957C144.143,512.276 144.682,512.434 145.438,512.434C147.425,512.434 148.958,512.859 150.036,513.709C151.113,514.56 151.652,515.759 151.652,517.307C151.652,517.75 151.543,518.233 151.327,518.759C151.11,519.284 150.767,519.775 150.298,520.231C149.829,520.687 149.217,521.067 148.461,521.371C147.705,521.675 146.788,521.827 145.711,521.827Z"/>
            </clipPath>
            <g clip-path="url(#_clip3)">
                <rect x="135" y="501.193" width="21.652" height="25.635" style="fill:rgb(142,150,157);"/>
            </g>
        </g>
        <g transform="matrix(8.33333,0,0,8.33333,-1098.9,-3561.64)">
            <clipPath id="_clip4">
                <path d="M162.286,509.49C161.656,509.49 161.068,509.607 160.522,509.842C159.976,510.077 159.5,510.399 159.094,510.806C158.689,511.214 158.367,511.688 158.129,512.227C157.891,512.766 157.772,513.347 157.772,513.969C157.772,514.591 157.891,515.171 158.129,515.71C158.367,516.25 158.689,516.723 159.094,517.131C159.5,517.539 159.976,517.86 160.522,518.095C161.068,518.33 161.656,518.448 162.286,518.448C162.902,518.448 163.483,518.33 164.028,518.095C164.574,517.86 165.053,517.539 165.466,517.131C165.879,516.723 166.204,516.25 166.443,515.71C166.681,515.171 166.799,514.591 166.799,513.969C166.799,513.347 166.681,512.766 166.443,512.227C166.204,511.688 165.879,511.214 165.466,510.806C165.053,510.399 164.574,510.077 164.028,509.842C163.483,509.607 162.902,509.49 162.286,509.49ZM162.286,521.579C161.222,521.579 160.225,521.378 159.294,520.977C158.363,520.576 157.551,520.031 156.859,519.339C156.166,518.648 155.616,517.843 155.21,516.924C154.805,516.004 154.601,515.019 154.601,513.969C154.601,512.918 154.805,511.933 155.21,511.014C155.616,510.095 156.166,509.29 156.859,508.598C157.551,507.907 158.363,507.361 159.294,506.96C160.225,506.559 161.222,506.359 162.286,506.359C163.349,506.359 164.347,506.559 165.277,506.96C166.208,507.361 167.02,507.907 167.713,508.598C168.406,509.29 168.955,510.095 169.361,511.014C169.767,511.933 169.97,512.918 169.97,513.969C169.97,515.019 169.767,516.004 169.361,516.924C168.955,517.843 168.406,518.648 167.713,519.339C167.02,520.031 166.208,520.576 165.277,520.977C164.347,521.378 163.349,521.579 162.286,521.579Z"/>
            </clipPath>
            <g clip-path="url(#_clip4)">
                <rect x="149.601" y="501.359" width="25.368" height="25.22" style="fill:rgb(142,150,157);"/>
            </g>
        </g>
        <g transform="matrix(8.33333,0,0,8.33333,-1098.9,-3561.47)">
            <clipPath id="_clip5">
                <path d="M176.194,521.579L172.919,521.579L172.919,506.338L176.32,506.338L180.478,516.747L184.571,506.338L187.952,506.338L187.952,521.579L184.676,521.579L184.676,515.399L182.094,521.579L178.861,521.579L176.194,515.296L176.194,521.579Z"/>
            </clipPath>
            <g clip-path="url(#_clip5)">
                <rect x="167.919" y="501.338" width="25.032" height="25.241" style="fill:rgb(142,150,157);"/>
            </g>
        </g>
        <g transform="matrix(8.33333,0,0,8.33333,-1098.9,-3561.64)">
            <clipPath id="_clip6">
                <path d="M198.585,509.49C197.955,509.49 197.368,509.607 196.822,509.842C196.276,510.077 195.8,510.399 195.394,510.806C194.988,511.214 194.666,511.688 194.428,512.227C194.19,512.766 194.071,513.347 194.071,513.969C194.071,514.591 194.19,515.171 194.428,515.71C194.666,516.25 194.988,516.723 195.394,517.131C195.8,517.539 196.276,517.86 196.822,518.095C197.368,518.33 197.955,518.448 198.585,518.448C199.201,518.448 199.782,518.33 200.328,518.095C200.874,517.86 201.353,517.539 201.766,517.131C202.179,516.723 202.504,516.25 202.742,515.71C202.98,515.171 203.099,514.591 203.099,513.969C203.099,513.347 202.98,512.766 202.742,512.227C202.504,511.688 202.179,511.214 201.766,510.806C201.353,510.399 200.874,510.077 200.328,509.842C199.782,509.607 199.201,509.49 198.585,509.49ZM198.585,521.579C197.521,521.579 196.524,521.378 195.593,520.977C194.663,520.576 193.851,520.031 193.158,519.339C192.465,518.648 191.916,517.843 191.51,516.924C191.104,516.004 190.901,515.019 190.901,513.969C190.901,512.918 191.104,511.933 191.51,511.014C191.916,510.095 192.465,509.29 193.158,508.598C193.851,507.907 194.663,507.361 195.593,506.96C196.524,506.559 197.521,506.359 198.585,506.359C199.649,506.359 200.646,506.559 201.577,506.96C202.508,507.361 203.319,507.907 204.012,508.598C204.705,509.29 205.254,510.095 205.66,511.014C206.066,511.933 206.269,512.918 206.269,513.969C206.269,515.019 206.066,516.004 205.66,516.924C205.254,517.843 204.705,518.648 204.012,519.339C203.319,520.031 202.508,520.576 201.577,520.977C200.646,521.378 199.649,521.579 198.585,521.579Z"/>
            </clipPath>
            <g clip-path="url(#_clip6)">
                <rect x="185.901" y="501.359" width="25.368" height="25.22" style="fill:rgb(142,150,157);"/>
            </g>
        </g>
        <g transform="matrix(8.33333,0,0,8.33333,-1098.9,-3562.33)">
            <clipPath id="_clip7">
                <path d="M214.929,521.827C214.145,521.827 213.41,521.703 212.725,521.454C212.039,521.205 211.434,520.874 210.909,520.459C210.384,520.044 209.971,519.557 209.67,518.997C209.369,518.437 209.219,517.846 209.219,517.224L212.41,517.224C212.41,517.348 212.469,517.494 212.589,517.66C212.707,517.825 212.875,517.985 213.092,518.137C213.309,518.289 213.571,518.416 213.88,518.52C214.187,518.624 214.538,518.676 214.929,518.676C215.559,518.676 216.056,518.603 216.42,518.458C216.784,518.313 217.057,518.154 217.239,517.981C217.421,517.808 217.561,517.577 217.659,517.286C217.659,517.121 217.648,516.955 217.627,516.789C217.606,516.623 217.54,516.471 217.428,516.332C217.232,516.098 216.896,515.915 216.42,515.783C215.944,515.652 215.356,515.586 214.657,515.586C214.124,515.586 213.645,515.538 213.218,515.441C212.791,515.344 212.417,515.223 212.095,515.078C211.773,514.933 211.493,514.771 211.255,514.591C211.017,514.411 210.821,514.232 210.667,514.052C210.36,513.72 210.122,513.371 209.954,513.004C209.786,512.638 209.667,512.293 209.597,511.968C209.527,511.643 209.488,511.36 209.481,511.117C209.474,510.876 209.471,510.7 209.471,510.589C209.471,510.492 209.485,510.337 209.513,510.122C209.541,509.908 209.6,509.669 209.691,509.407C209.782,509.144 209.908,508.865 210.069,508.567C210.23,508.27 210.45,507.983 210.73,507.706C211.752,506.698 213.173,506.193 214.992,506.193C216.784,506.193 218.183,506.711 219.192,507.748C219.541,508.108 219.814,508.481 220.01,508.868C220.206,509.255 220.346,509.614 220.43,509.946C220.514,510.278 220.563,510.561 220.577,510.796C220.591,511.031 220.598,511.176 220.598,511.232L217.407,511.128L217.407,511.169C217.407,511.003 217.379,510.814 217.323,510.599C217.267,510.385 217.155,510.184 216.987,509.998C216.819,509.811 216.574,509.656 216.252,509.531C215.93,509.407 215.51,509.345 214.992,509.345C214.489,509.345 214.086,509.393 213.785,509.49C213.484,509.587 213.253,509.704 213.092,509.842C212.931,509.981 212.823,510.126 212.767,510.278C212.711,510.43 212.683,510.554 212.683,510.651L212.683,510.796L212.662,510.817C212.662,510.955 212.676,511.093 212.704,511.232C212.732,511.343 212.767,511.463 212.809,511.594C212.851,511.726 212.928,511.847 213.04,511.957C213.362,512.276 213.901,512.434 214.657,512.434C216.644,512.434 218.176,512.859 219.254,513.709C220.332,514.56 220.871,515.759 220.871,517.307C220.871,517.75 220.762,518.233 220.546,518.759C220.328,519.284 219.986,519.775 219.517,520.231C219.048,520.687 218.436,521.067 217.68,521.371C216.924,521.675 216.007,521.827 214.929,521.827Z"/>
            </clipPath>
            <g clip-path="url(#_clip7)">
                <rect x="204.219" y="501.193" width="21.652" height="25.635" style="fill:rgb(142,150,157);"/>
            </g>
        </g>
    </g>
    <defs>
        <linearGradient id="_Linear2" x1="0" y1="0" x2="1" y2="0" gradientUnits="userSpaceOnUse" gradientTransform="matrix(-31.4468,-31.4468,31.4468,-31.4468,197.944,569.212)"><stop offset="0" style="stop-color:rgb(225,97,61);stop-opacity:1"/><stop offset="1" style="stop-color:rgb(239,125,56);stop-opacity:1"/></linearGradient>
    </defs>
</svg>
